<!-- mdzz_bigM_smallDZZ.svg
     8-bit 像素风：远看只有一个很大的 M，DZZ 非常小地藏在底部右侧
-->
<svg xmlns="http://www.w3.org/2000/svg" width="512" height="512" viewBox="0 0 64 64">
  <rect width="64" height="64" fill="#071428"/>
  <!-- 大像素 M（主色） -->
  <g fill="#F6B13F">
    <!-- left stem -->
    <rect x="4" y="8" width="8" height="48" />
    <!-- right stem -->
    <rect x="52" y="8" width="8" height="48" />
    <!-- middle zig (pixel steps) -->
    <rect x="12" y="8" width="6" height="8" />
    <rect x="18" y="16" width="6" height="8" />
    <rect x="24" y="24" width="6" height="8" />
    <rect x="30" y="32" width="6" height="8" />
    <rect x="36" y="24" width="6" height="8" />
    <rect x="42" y="16" width="6" height="8" />
    <rect x="48" y="8" width="4" height="8" />
  </g>

  <!-- 非常小的 DZZ（需要靠近/放大才能看清） -->
  <g transform="translate(40,44) scale(0.7)" fill="#48E08B">
    <!-- D (tiny pixel) -->
    <rect x="0" y="0" width="1.6" height="3.6"/>
    <rect x="1.6" y="0" width="1.6" height="0.8"/>
    <rect x="1.6" y="2.8" width="1.6" height="0.8"/>
    <!-- gap -->
    <rect x="4.6" y="0" width="0.8" height="3.6"/>
    <!-- Z -->
    <rect x="7.0" y="0" width="2.4" height="0.8"/>
    <rect x="7.0" y="2.8" width="2.4" height="0.8"/>
    <rect x="8.0" y="1.2" width="1.2" height="0.8"/>
    <!-- second Z -->
    <rect x="10.5" y="0" width="2.4" height="0.8"/>
    <rect x="10.5" y="2.8" width="2.4" height="0.8"/>
    <rect x="11.5" y="1.2" width="1.2" height="0.8"/>
  </g>

  <!-- 轻微黑边让像素更复古 -->
  <rect x="3" y="7" width="58" height="50" fill="none" stroke="#061022" stroke-width="0.5"/>
</svg>
